<svg width="200" height="200" viewBox="0 0 338 340" fill="none" xmlns="http://www.w3.org/2000/svg">
<g filter="url(#filter0_d_3421_53)">
<rect x="92" y="92" width="160" height="160" rx="80" fill="white"/>
<path opacity="0.24" d="M172 205.367C190.409 205.367 205.333 190.443 205.333 172.033C205.333 153.624 190.409 138.7 172 138.7C153.59 138.7 138.667 153.624 138.667 172.033C138.667 190.443 153.59 205.367 172 205.367Z" fill="#05796B"/>
<path d="M172 155.133C165.1 155.133 159.5 160.733 159.5 167.633C159.5 174.4 164.8 179.9 171.833 180.1C171.933 180.1 172.067 180.1 172.133 180.1C172.2 180.1 172.3 180.1 172.367 180.1C172.4 180.1 172.433 180.1 172.433 180.1C179.167 179.867 184.467 174.4 184.5 167.633C184.5 160.733 178.9 155.133 172 155.133Z" fill="#05796B"/>
<path d="M194.6 196.533C188.667 202 180.733 205.367 172 205.367C163.267 205.367 155.333 202 149.4 196.533C150.2 193.5 152.367 190.733 155.533 188.6C164.633 182.533 179.433 182.533 188.467 188.6C191.667 190.733 193.8 193.5 194.6 196.533Z" fill="#05796B"/>
</g>
<g filter="url(#filter1_d_3421_53)">
<rect x="72" y="72" width="40" height="40" rx="20" fill="#F6F6F7"/>
<path d="M93.832 98H91.366V90.188H88.558V88.514C89.398 88.502 90.1 88.292 90.664 87.884C91.228 87.464 91.57 86.942 91.69 86.318H93.832V98Z" fill="black"/>
</g>
<defs>
<filter id="filter0_d_3421_53" x="18" y="20" width="320" height="320" filterUnits="userSpaceOnUse" color-interpolation-filters="sRGB">
<feFlood flood-opacity="0" result="BackgroundImageFix"/>
<feColorMatrix in="SourceAlpha" type="matrix" values="0 0 0 0 0 0 0 0 0 0 0 0 0 0 0 0 0 0 127 0" result="hardAlpha"/>
<feOffset dx="6" dy="8"/>
<feGaussianBlur stdDeviation="40"/>
<feComposite in2="hardAlpha" operator="out"/>
<feColorMatrix type="matrix" values="0 0 0 0 0.579167 0 0 0 0 0.579167 0 0 0 0 0.579167 0 0 0 0.16 0"/>
<feBlend mode="normal" in2="BackgroundImageFix" result="effect1_dropShadow_3421_53"/>
<feBlend mode="normal" in="SourceGraphic" in2="effect1_dropShadow_3421_53" result="shape"/>
</filter>
<filter id="filter1_d_3421_53" x="0" y="0" width="200" height="200" filterUnits="userSpaceOnUse" color-interpolation-filters="sRGB">
<feFlood flood-opacity="0" result="BackgroundImageFix"/>
<feColorMatrix in="SourceAlpha" type="matrix" values="0 0 0 0 0 0 0 0 0 0 0 0 0 0 0 0 0 0 127 0" result="hardAlpha"/>
<feOffset dx="8" dy="8"/>
<feGaussianBlur stdDeviation="40"/>
<feComposite in2="hardAlpha" operator="out"/>
<feColorMatrix type="matrix" values="0 0 0 0 0.654167 0 0 0 0 0.654167 0 0 0 0 0.654167 0 0 0 0.8 0"/>
<feBlend mode="normal" in2="BackgroundImageFix" result="effect1_dropShadow_3421_53"/>
<feBlend mode="normal" in="SourceGraphic" in2="effect1_dropShadow_3421_53" result="shape"/>
</filter>
</defs>
</svg>
