<svg width="180" height="180" viewBox="0 0 180 180" fill="none" xmlns="http://www.w3.org/2000/svg">
<path opacity="0.24" d="M66.6667 102.933V97.0667C66.6667 93.6 69.5 90.7333 73 90.7333C79.0334 90.7333 81.5 86.4667 78.4667 81.2333C76.7334 78.2333 77.7667 74.3333 80.8 72.6L86.5667 69.3C89.2 67.7333 92.6 68.6667 94.1667 71.3L94.5334 71.9333C97.5334 77.1667 102.467 77.1667 105.5 71.9333L105.867 71.3C107.433 68.6667 110.833 67.7333 113.467 69.3L119.233 72.6C122.267 74.3333 123.3 78.2333 121.567 81.2333C118.533 86.4667 121 90.7333 127.033 90.7333C130.5 90.7333 133.367 93.5667 133.367 97.0667V102.933C133.367 106.4 130.533 109.267 127.033 109.267C121 109.267 118.533 113.533 121.567 118.767C123.3 121.8 122.267 125.667 119.233 127.4L113.467 130.7C110.833 132.267 107.433 131.333 105.867 128.7L105.5 128.067C102.5 122.833 97.5667 122.833 94.5334 128.067L94.1667 128.7C92.6 131.333 89.2 132.267 86.5667 130.7L80.8 127.4C77.7667 125.667 76.7334 121.767 78.4667 118.767C81.5 113.533 79.0334 109.267 73 109.267C69.5 109.267 66.6667 106.4 66.6667 102.933Z" fill="#05796B"/>
<path d="M100 110.833C105.983 110.833 110.833 105.983 110.833 100C110.833 94.0169 105.983 89.1666 100 89.1666C94.0169 89.1666 89.1667 94.0169 89.1667 100C89.1667 105.983 94.0169 110.833 100 110.833Z" fill="#05796B"/>
<rect x="20.5" y="20.5" width="159" height="159" rx="79.5" stroke="#939393" stroke-dasharray="5 5"/>
<rect width="40" height="40" rx="20" fill="#F6F6F7"/>
<path d="M18.114 19.836L15.756 19.764C15.696 19.5 15.666 19.23 15.666 18.954C15.666 17.874 16.05 16.956 16.818 16.2C17.586 15.432 18.624 15.048 19.932 15.048C21.204 15.048 22.224 15.414 22.992 16.146C23.76 16.866 24.144 17.754 24.144 18.81C24.144 20.298 23.388 21.504 21.876 22.428L19.626 23.796C19.098 24.132 18.762 24.486 18.618 24.858H24.216V27H15.576C15.588 25.908 15.798 24.954 16.206 24.138C16.626 23.322 17.334 22.614 18.33 22.014L20.256 20.862C21.18 20.31 21.642 19.638 21.642 18.846C21.642 18.402 21.486 18.024 21.174 17.712C20.874 17.4 20.442 17.244 19.878 17.244C19.278 17.244 18.816 17.424 18.492 17.784C18.18 18.144 18.024 18.612 18.024 19.188C18.024 19.404 18.054 19.62 18.114 19.836Z" fill="black"/>
</svg>
