<svg width="180" height="180" viewBox="0 0 180 180" fill="none" xmlns="http://www.w3.org/2000/svg">
<path d="M100 72.2333V127.767L97.3334 130.8C93.6334 135 90.6 133.867 90.6 128.267V104.267H80.3C75.6334 104.267 74.3334 101.4 77.4334 97.8999L100 72.2333Z" fill="#05796B"/>
<path opacity="0.24" d="M122.567 102.1L100 127.767V72.2333L102.667 69.1999C106.367 64.9999 109.4 66.1333 109.4 71.7333V95.7333H119.7C124.367 95.7333 125.667 98.5999 122.567 102.1Z" fill="#05796B"/>
<rect x="20.5" y="20.5" width="159" height="159" rx="79.5" stroke="#939393" stroke-dasharray="5 5"/>
<rect width="40" height="40" rx="20" fill="#F6F6F7"/>
<path d="M18.852 21.816L17.754 20.088L20.814 17.46H15.702V15.318H23.964V17.316L20.94 19.836C21.864 19.872 22.656 20.22 23.316 20.88C23.988 21.528 24.324 22.368 24.324 23.4C24.324 24.456 23.916 25.368 23.1 26.136C22.284 26.892 21.198 27.27 19.842 27.27C18.534 27.27 17.472 26.91 16.656 26.19C15.84 25.458 15.396 24.576 15.324 23.544L17.718 23.076C17.742 23.676 17.946 24.168 18.33 24.552C18.726 24.936 19.23 25.128 19.842 25.128C20.442 25.128 20.922 24.96 21.282 24.624C21.642 24.288 21.822 23.868 21.822 23.364C21.822 22.824 21.642 22.404 21.282 22.104C20.934 21.792 20.478 21.636 19.914 21.636C19.542 21.636 19.188 21.696 18.852 21.816Z" fill="black"/>
</svg>
